<svg width="24" height="24" viewBox="0 0 24 24" fill="none" xmlns="http://www.w3.org/2000/svg">
<path d="M12 18.3264C11.0907 18.7583 10.0736 19 9 19C5.13401 19 2 15.866 2 12C2 8.13401 5.13401 5 9 5C10.0736 5 11.0907 5.24169 12 5.67363C12.9093 5.24169 13.9264 5 15 5C18.866 5 22 8.13401 22 12C22 15.866 18.866 19 15 19C13.9264 19 12.9093 18.7583 12 18.3264ZM10.0008 16.8998C8.76315 15.6372 8 13.9077 8 12C8 10.0923 8.76315 8.36279 10.0008 7.10018C9.67745 7.03449 9.34275 7 9 7C6.23858 7 4 9.23858 4 12C4 14.7614 6.23858 17 9 17C9.34275 17 9.67745 16.9655 10.0008 16.8998ZM13.9992 7.10018C15.2369 8.36279 16 10.0923 16 12C16 13.9077 15.2369 15.6372 13.9992 16.8998C14.3225 16.9655 14.6572 17 15 17C17.7614 17 20 14.7614 20 12C20 9.23858 17.7614 7 15 7C14.6572 7 14.3225 7.03449 13.9992 7.10018ZM12 7.99963C10.7856 8.91184 10 10.3642 10 12C10 13.6358 10.7856 15.0882 12 16.0004C13.2144 15.0882 14 13.6358 14 12C14 10.3642 13.2144 8.91184 12 7.99963Z" fill="black"/>
</svg>
